<?xml version="1.0" encoding="utf-8"?>
<svg xmlns="http://www.w3.org/2000/svg" xmlns:xlink="http://www.w3.org/1999/xlink" style="margin: auto; background: none; display: block; shape-rendering: auto;" width="200px" height="200px" viewBox="0 0 100 100" preserveAspectRatio="xMidYMid">
<g transform="rotate(0 50 50)">
  <rect x="47.5" y="19.5" rx="2.5" ry="10.5" width="5" height="21" fill="#fcb711">
    <animate attributeName="opacity" values="1;0" keyTimes="0;1" dur="0.5952380952380952s" begin="-0.5777310924369748s" repeatCount="indefinite"></animate>
  </rect>
</g><g transform="rotate(10.588235294117647 50 50)">
  <rect x="47.5" y="19.5" rx="2.5" ry="10.5" width="5" height="21" fill="#f37021">
    <animate attributeName="opacity" values="1;0" keyTimes="0;1" dur="0.5952380952380952s" begin="-0.5602240896358543s" repeatCount="indefinite"></animate>
  </rect>
</g><g transform="rotate(21.176470588235293 50 50)">
  <rect x="47.5" y="19.5" rx="2.5" ry="10.5" width="5" height="21" fill="#cc004c">
    <animate attributeName="opacity" values="1;0" keyTimes="0;1" dur="0.5952380952380952s" begin="-0.542717086834734s" repeatCount="indefinite"></animate>
  </rect>
</g><g transform="rotate(31.764705882352942 50 50)">
  <rect x="47.5" y="19.5" rx="2.5" ry="10.5" width="5" height="21" fill="#6460aa">
    <animate attributeName="opacity" values="1;0" keyTimes="0;1" dur="0.5952380952380952s" begin="-0.5252100840336135s" repeatCount="indefinite"></animate>
  </rect>
</g><g transform="rotate(42.35294117647059 50 50)">
  <rect x="47.5" y="19.5" rx="2.5" ry="10.5" width="5" height="21" fill="#0089d0">
    <animate attributeName="opacity" values="1;0" keyTimes="0;1" dur="0.5952380952380952s" begin="-0.507703081232493s" repeatCount="indefinite"></animate>
  </rect>
</g><g transform="rotate(52.94117647058823 50 50)">
  <rect x="47.5" y="19.5" rx="2.5" ry="10.5" width="5" height="21" fill="#0db14b">
    <animate attributeName="opacity" values="1;0" keyTimes="0;1" dur="0.5952380952380952s" begin="-0.4901960784313726s" repeatCount="indefinite"></animate>
  </rect>
</g><g transform="rotate(63.529411764705884 50 50)">
  <rect x="47.5" y="19.5" rx="2.5" ry="10.5" width="5" height="21" fill="#fcb711">
    <animate attributeName="opacity" values="1;0" keyTimes="0;1" dur="0.5952380952380952s" begin="-0.47268907563025214s" repeatCount="indefinite"></animate>
  </rect>
</g><g transform="rotate(74.11764705882354 50 50)">
  <rect x="47.5" y="19.5" rx="2.5" ry="10.5" width="5" height="21" fill="#f37021">
    <animate attributeName="opacity" values="1;0" keyTimes="0;1" dur="0.5952380952380952s" begin="-0.45518207282913165s" repeatCount="indefinite"></animate>
  </rect>
</g><g transform="rotate(84.70588235294117 50 50)">
  <rect x="47.5" y="19.5" rx="2.5" ry="10.5" width="5" height="21" fill="#cc004c">
    <animate attributeName="opacity" values="1;0" keyTimes="0;1" dur="0.5952380952380952s" begin="-0.4376750700280112s" repeatCount="indefinite"></animate>
  </rect>
</g><g transform="rotate(95.29411764705883 50 50)">
  <rect x="47.5" y="19.5" rx="2.5" ry="10.5" width="5" height="21" fill="#6460aa">
    <animate attributeName="opacity" values="1;0" keyTimes="0;1" dur="0.5952380952380952s" begin="-0.42016806722689076s" repeatCount="indefinite"></animate>
  </rect>
</g><g transform="rotate(105.88235294117646 50 50)">
  <rect x="47.5" y="19.5" rx="2.5" ry="10.5" width="5" height="21" fill="#0089d0">
    <animate attributeName="opacity" values="1;0" keyTimes="0;1" dur="0.5952380952380952s" begin="-0.4026610644257703s" repeatCount="indefinite"></animate>
  </rect>
</g><g transform="rotate(116.47058823529412 50 50)">
  <rect x="47.5" y="19.5" rx="2.5" ry="10.5" width="5" height="21" fill="#0db14b">
    <animate attributeName="opacity" values="1;0" keyTimes="0;1" dur="0.5952380952380952s" begin="-0.3851540616246499s" repeatCount="indefinite"></animate>
  </rect>
</g><g transform="rotate(127.05882352941177 50 50)">
  <rect x="47.5" y="19.5" rx="2.5" ry="10.5" width="5" height="21" fill="#fcb711">
    <animate attributeName="opacity" values="1;0" keyTimes="0;1" dur="0.5952380952380952s" begin="-0.36764705882352944s" repeatCount="indefinite"></animate>
  </rect>
</g><g transform="rotate(137.64705882352942 50 50)">
  <rect x="47.5" y="19.5" rx="2.5" ry="10.5" width="5" height="21" fill="#f37021">
    <animate attributeName="opacity" values="1;0" keyTimes="0;1" dur="0.5952380952380952s" begin="-0.350140056022409s" repeatCount="indefinite"></animate>
  </rect>
</g><g transform="rotate(148.23529411764707 50 50)">
  <rect x="47.5" y="19.5" rx="2.5" ry="10.5" width="5" height="21" fill="#cc004c">
    <animate attributeName="opacity" values="1;0" keyTimes="0;1" dur="0.5952380952380952s" begin="-0.33263305322128855s" repeatCount="indefinite"></animate>
  </rect>
</g><g transform="rotate(158.8235294117647 50 50)">
  <rect x="47.5" y="19.5" rx="2.5" ry="10.5" width="5" height="21" fill="#6460aa">
    <animate attributeName="opacity" values="1;0" keyTimes="0;1" dur="0.5952380952380952s" begin="-0.31512605042016806s" repeatCount="indefinite"></animate>
  </rect>
</g><g transform="rotate(169.41176470588235 50 50)">
  <rect x="47.5" y="19.5" rx="2.5" ry="10.5" width="5" height="21" fill="#0089d0">
    <animate attributeName="opacity" values="1;0" keyTimes="0;1" dur="0.5952380952380952s" begin="-0.2976190476190476s" repeatCount="indefinite"></animate>
  </rect>
</g><g transform="rotate(180 50 50)">
  <rect x="47.5" y="19.5" rx="2.5" ry="10.5" width="5" height="21" fill="#0db14b">
    <animate attributeName="opacity" values="1;0" keyTimes="0;1" dur="0.5952380952380952s" begin="-0.2801120448179272s" repeatCount="indefinite"></animate>
  </rect>
</g><g transform="rotate(190.58823529411765 50 50)">
  <rect x="47.5" y="19.5" rx="2.5" ry="10.5" width="5" height="21" fill="#fcb711">
    <animate attributeName="opacity" values="1;0" keyTimes="0;1" dur="0.5952380952380952s" begin="-0.26260504201680673s" repeatCount="indefinite"></animate>
  </rect>
</g><g transform="rotate(201.1764705882353 50 50)">
  <rect x="47.5" y="19.5" rx="2.5" ry="10.5" width="5" height="21" fill="#f37021">
    <animate attributeName="opacity" values="1;0" keyTimes="0;1" dur="0.5952380952380952s" begin="-0.2450980392156863s" repeatCount="indefinite"></animate>
  </rect>
</g><g transform="rotate(211.76470588235293 50 50)">
  <rect x="47.5" y="19.5" rx="2.5" ry="10.5" width="5" height="21" fill="#cc004c">
    <animate attributeName="opacity" values="1;0" keyTimes="0;1" dur="0.5952380952380952s" begin="-0.22759103641456582s" repeatCount="indefinite"></animate>
  </rect>
</g><g transform="rotate(222.35294117647058 50 50)">
  <rect x="47.5" y="19.5" rx="2.5" ry="10.5" width="5" height="21" fill="#6460aa">
    <animate attributeName="opacity" values="1;0" keyTimes="0;1" dur="0.5952380952380952s" begin="-0.21008403361344538s" repeatCount="indefinite"></animate>
  </rect>
</g><g transform="rotate(232.94117647058823 50 50)">
  <rect x="47.5" y="19.5" rx="2.5" ry="10.5" width="5" height="21" fill="#0089d0">
    <animate attributeName="opacity" values="1;0" keyTimes="0;1" dur="0.5952380952380952s" begin="-0.19257703081232494s" repeatCount="indefinite"></animate>
  </rect>
</g><g transform="rotate(243.52941176470588 50 50)">
  <rect x="47.5" y="19.5" rx="2.5" ry="10.5" width="5" height="21" fill="#0db14b">
    <animate attributeName="opacity" values="1;0" keyTimes="0;1" dur="0.5952380952380952s" begin="-0.1750700280112045s" repeatCount="indefinite"></animate>
  </rect>
</g><g transform="rotate(254.11764705882354 50 50)">
  <rect x="47.5" y="19.5" rx="2.5" ry="10.5" width="5" height="21" fill="#fcb711">
    <animate attributeName="opacity" values="1;0" keyTimes="0;1" dur="0.5952380952380952s" begin="-0.15756302521008403s" repeatCount="indefinite"></animate>
  </rect>
</g><g transform="rotate(264.70588235294116 50 50)">
  <rect x="47.5" y="19.5" rx="2.5" ry="10.5" width="5" height="21" fill="#f37021">
    <animate attributeName="opacity" values="1;0" keyTimes="0;1" dur="0.5952380952380952s" begin="-0.1400560224089636s" repeatCount="indefinite"></animate>
  </rect>
</g><g transform="rotate(275.29411764705884 50 50)">
  <rect x="47.5" y="19.5" rx="2.5" ry="10.5" width="5" height="21" fill="#cc004c">
    <animate attributeName="opacity" values="1;0" keyTimes="0;1" dur="0.5952380952380952s" begin="-0.12254901960784315s" repeatCount="indefinite"></animate>
  </rect>
</g><g transform="rotate(285.88235294117646 50 50)">
  <rect x="47.5" y="19.5" rx="2.5" ry="10.5" width="5" height="21" fill="#6460aa">
    <animate attributeName="opacity" values="1;0" keyTimes="0;1" dur="0.5952380952380952s" begin="-0.10504201680672269s" repeatCount="indefinite"></animate>
  </rect>
</g><g transform="rotate(296.47058823529414 50 50)">
  <rect x="47.5" y="19.5" rx="2.5" ry="10.5" width="5" height="21" fill="#0089d0">
    <animate attributeName="opacity" values="1;0" keyTimes="0;1" dur="0.5952380952380952s" begin="-0.08753501400560225s" repeatCount="indefinite"></animate>
  </rect>
</g><g transform="rotate(307.05882352941177 50 50)">
  <rect x="47.5" y="19.5" rx="2.5" ry="10.5" width="5" height="21" fill="#0db14b">
    <animate attributeName="opacity" values="1;0" keyTimes="0;1" dur="0.5952380952380952s" begin="-0.0700280112044818s" repeatCount="indefinite"></animate>
  </rect>
</g><g transform="rotate(317.6470588235294 50 50)">
  <rect x="47.5" y="19.5" rx="2.5" ry="10.5" width="5" height="21" fill="#fcb711">
    <animate attributeName="opacity" values="1;0" keyTimes="0;1" dur="0.5952380952380952s" begin="-0.052521008403361345s" repeatCount="indefinite"></animate>
  </rect>
</g><g transform="rotate(328.2352941176471 50 50)">
  <rect x="47.5" y="19.5" rx="2.5" ry="10.5" width="5" height="21" fill="#f37021">
    <animate attributeName="opacity" values="1;0" keyTimes="0;1" dur="0.5952380952380952s" begin="-0.0350140056022409s" repeatCount="indefinite"></animate>
  </rect>
</g><g transform="rotate(338.8235294117647 50 50)">
  <rect x="47.5" y="19.5" rx="2.5" ry="10.5" width="5" height="21" fill="#cc004c">
    <animate attributeName="opacity" values="1;0" keyTimes="0;1" dur="0.5952380952380952s" begin="-0.01750700280112045s" repeatCount="indefinite"></animate>
  </rect>
</g><g transform="rotate(349.4117647058824 50 50)">
  <rect x="47.5" y="19.5" rx="2.5" ry="10.5" width="5" height="21" fill="#6460aa">
    <animate attributeName="opacity" values="1;0" keyTimes="0;1" dur="0.5952380952380952s" begin="0s" repeatCount="indefinite"></animate>
  </rect>
</g>
<!-- [ldio] generated by https://loading.io/ --></svg>